<mxfile host="Electron" agent="Mozilla/5.0 (Windows NT 10.0; Win64; x64) AppleWebKit/537.36 (KHTML, like Gecko) draw.io/26.2.2 Chrome/134.0.6998.178 Electron/35.1.2 Safari/537.36" version="26.2.2">
  <diagram name="MVC Architecture" id="yvpOD-yNQ5Lf6rlFDcqt">
    <mxGraphModel dx="2112" dy="1832" grid="1" gridSize="10" guides="1" tooltips="1" connect="1" arrows="1" fold="1" page="1" pageScale="1" pageWidth="700" pageHeight="1000" math="0" shadow="0">
      <root>
        <mxCell id="0" />
        <mxCell id="1" parent="0" />
        <mxCell id="W37AYwWuPMsIZeuOg98Q-1" value="&amp;nbsp;RDS PostgreSQL&lt;div&gt;Amazon Beanstalk&lt;/div&gt;&lt;div&gt;AWS CodeLine&lt;/div&gt;&lt;div&gt;AWS Codebuild&lt;/div&gt;" style="shape=cylinder;whiteSpace=wrap;html=1;boundedLbl=1;gradientColor=none;gradientDirection=north;fontSize=12;fontFamily=Helvetica;verticalAlign=middle;fillColor=#dae8fc;strokeColor=#6c8ebf;" parent="1" vertex="1">
          <mxGeometry x="265" y="-80" width="190" height="160" as="geometry" />
        </mxCell>
        <mxCell id="W37AYwWuPMsIZeuOg98Q-2" value="" style="shape=mxgraph.people.person;whiteSpace=wrap;html=1;verticalLabelPosition=bottom;verticalAlign=top;fontSize=12;fontFamily=Helvetica;" parent="1" vertex="1">
          <mxGeometry x="335" y="145" width="50" height="80" as="geometry" />
        </mxCell>
        <mxCell id="W37AYwWuPMsIZeuOg98Q-35" style="edgeStyle=orthogonalEdgeStyle;rounded=0;orthogonalLoop=1;jettySize=auto;html=1;exitX=0.329;exitY=1.021;exitDx=0;exitDy=0;entryX=0;entryY=0.75;entryDx=0;entryDy=0;exitPerimeter=0;" parent="1" source="W37AYwWuPMsIZeuOg98Q-3" target="W37AYwWuPMsIZeuOg98Q-5" edge="1">
          <mxGeometry relative="1" as="geometry">
            <mxPoint x="130" y="570" as="targetPoint" />
            <mxPoint x="130" y="260" as="sourcePoint" />
            <Array as="points">
              <mxPoint x="133" y="282" />
              <mxPoint x="130" y="282" />
              <mxPoint x="130" y="570" />
            </Array>
          </mxGeometry>
        </mxCell>
        <mxCell id="W37AYwWuPMsIZeuOg98Q-3" value="Spring Data JPA,&lt;div&gt;Business service / logic.&lt;/div&gt;&lt;div&gt;Data structures,entries, moods etc etc.&lt;/div&gt;" style="rounded=1;whiteSpace=wrap;html=1;strokeColor=#2d76ba;fillColor=#d5e8d4;fontSize=12;fontFamily=Helvetica;" parent="1" vertex="1">
          <mxGeometry x="80" y="120" width="160" height="160" as="geometry" />
        </mxCell>
        <mxCell id="W37AYwWuPMsIZeuOg98Q-4" value="React.js ( renders UI, sends API requests to controller, recieves JWT from cognito,&amp;nbsp;" style="rounded=1;whiteSpace=wrap;html=1;strokeColor=#2d76ba;fillColor=#dae8fc;fontSize=12;fontFamily=Helvetica;" parent="1" vertex="1">
          <mxGeometry x="480" y="120" width="160" height="160" as="geometry" />
        </mxCell>
        <mxCell id="W37AYwWuPMsIZeuOg98Q-5" value="Spring boot controllers,&lt;div&gt;Spring security + cognito,&lt;/div&gt;&lt;div&gt;Rest API endpoints&lt;/div&gt;" style="rounded=1;whiteSpace=wrap;html=1;strokeColor=#2d76ba;fillColor=#fff2cc;fontSize=12;fontFamily=Helvetica;" parent="1" vertex="1">
          <mxGeometry x="270" y="450" width="180" height="160" as="geometry" />
        </mxCell>
        <mxCell id="W37AYwWuPMsIZeuOg98Q-6" style="edgeStyle=orthogonalEdgeStyle;rounded=1;html=1;strokeColor=#6c8ebf;fontSize=12;" parent="1" source="W37AYwWuPMsIZeuOg98Q-1" edge="1">
          <mxGeometry relative="1" as="geometry">
            <mxPoint x="160" y="120" as="targetPoint" />
          </mxGeometry>
        </mxCell>
        <mxCell id="W37AYwWuPMsIZeuOg98Q-7" value="Fetch Data" style="edgeStyle=elbowEdgeStyle;html=1;strokeColor=none;fillColor=none;fontSize=12;align=center;verticalAlign=middle;" parent="W37AYwWuPMsIZeuOg98Q-6" vertex="1">
          <mxGeometry x="0.5" y="0.5" relative="1" as="geometry">
            <mxPoint x="40" y="-36" as="offset" />
          </mxGeometry>
        </mxCell>
        <mxCell id="W37AYwWuPMsIZeuOg98Q-8" style="edgeStyle=orthogonalEdgeStyle;rounded=1;html=1;strokeColor=#2d76ba;fontSize=12;" parent="1" source="W37AYwWuPMsIZeuOg98Q-5" target="W37AYwWuPMsIZeuOg98Q-3" edge="1">
          <mxGeometry relative="1" as="geometry" />
        </mxCell>
        <mxCell id="W37AYwWuPMsIZeuOg98Q-9" value="Fetch Data" style="edgeStyle=elbowEdgeStyle;html=1;strokeColor=none;fillColor=none;fontSize=12;align=center;verticalAlign=middle;" parent="W37AYwWuPMsIZeuOg98Q-8" vertex="1">
          <mxGeometry x="0.5" y="0.5" relative="1" as="geometry">
            <mxPoint x="41" y="90" as="offset" />
          </mxGeometry>
        </mxCell>
        <mxCell id="W37AYwWuPMsIZeuOg98Q-10" style="edgeStyle=orthogonalEdgeStyle;rounded=1;html=1;strokeColor=#2d76ba;fontSize=12;" parent="1" source="W37AYwWuPMsIZeuOg98Q-5" target="W37AYwWuPMsIZeuOg98Q-4" edge="1">
          <mxGeometry relative="1" as="geometry" />
        </mxCell>
        <mxCell id="W37AYwWuPMsIZeuOg98Q-11" value="Fetch Presentation" style="edgeStyle=elbowEdgeStyle;html=1;strokeColor=none;fillColor=none;fontSize=12;align=center;verticalAlign=middle;" parent="W37AYwWuPMsIZeuOg98Q-10" vertex="1">
          <mxGeometry x="0.5" y="0.5" relative="1" as="geometry">
            <mxPoint x="-59" y="80" as="offset" />
          </mxGeometry>
        </mxCell>
        <mxCell id="W37AYwWuPMsIZeuOg98Q-18" value="&lt;b&gt;&lt;font style=&quot;font-size: 16px;&quot;&gt;VIEW&lt;/font&gt;&lt;/b&gt;" style="text;html=1;align=center;verticalAlign=middle;resizable=0;points=[];autosize=1;strokeColor=none;fillColor=none;" parent="1" vertex="1">
          <mxGeometry x="650" y="195" width="60" height="30" as="geometry" />
        </mxCell>
        <mxCell id="W37AYwWuPMsIZeuOg98Q-19" value="&lt;b&gt;&lt;font style=&quot;font-size: 16px;&quot;&gt;CONTROLLER&lt;/font&gt;&lt;/b&gt;" style="text;html=1;align=center;verticalAlign=middle;resizable=0;points=[];autosize=1;strokeColor=none;fillColor=none;" parent="1" vertex="1">
          <mxGeometry x="295" y="630" width="130" height="30" as="geometry" />
        </mxCell>
        <mxCell id="W37AYwWuPMsIZeuOg98Q-21" value="&lt;b&gt;&lt;font style=&quot;font-size: 16px;&quot;&gt;MODEL&lt;/font&gt;&lt;/b&gt;" style="text;html=1;align=center;verticalAlign=middle;resizable=0;points=[];autosize=1;strokeColor=none;fillColor=none;" parent="1" vertex="1">
          <mxGeometry x="-10" y="195" width="80" height="30" as="geometry" />
        </mxCell>
        <mxCell id="W37AYwWuPMsIZeuOg98Q-25" value="End User" style="text;html=1;align=center;verticalAlign=middle;resizable=0;points=[];autosize=1;strokeColor=none;fillColor=none;" parent="1" vertex="1">
          <mxGeometry x="325" y="115" width="70" height="30" as="geometry" />
        </mxCell>
        <mxCell id="W37AYwWuPMsIZeuOg98Q-27" value="Response" style="text;html=1;align=center;verticalAlign=middle;resizable=0;points=[];autosize=1;strokeColor=none;fillColor=none;" parent="1" vertex="1">
          <mxGeometry x="270" y="400" width="80" height="30" as="geometry" />
        </mxCell>
        <mxCell id="W37AYwWuPMsIZeuOg98Q-28" value="Request" style="text;html=1;align=center;verticalAlign=middle;resizable=0;points=[];autosize=1;strokeColor=none;fillColor=none;" parent="1" vertex="1">
          <mxGeometry x="370" y="250" width="70" height="30" as="geometry" />
        </mxCell>
        <mxCell id="W37AYwWuPMsIZeuOg98Q-33" value="" style="endArrow=classic;html=1;rounded=0;entryX=0.287;entryY=1.1;entryDx=0;entryDy=0;entryPerimeter=0;" parent="1" target="W37AYwWuPMsIZeuOg98Q-2" edge="1">
          <mxGeometry width="50" height="50" relative="1" as="geometry">
            <mxPoint x="349" y="440" as="sourcePoint" />
            <mxPoint x="450" y="460" as="targetPoint" />
            <Array as="points" />
          </mxGeometry>
        </mxCell>
        <mxCell id="W37AYwWuPMsIZeuOg98Q-34" value="" style="endArrow=classic;html=1;rounded=0;" parent="1" edge="1">
          <mxGeometry width="50" height="50" relative="1" as="geometry">
            <mxPoint x="370" y="240" as="sourcePoint" />
            <mxPoint x="370" y="440" as="targetPoint" />
          </mxGeometry>
        </mxCell>
        <mxCell id="W37AYwWuPMsIZeuOg98Q-37" value="" style="endArrow=classic;html=1;rounded=0;entryX=1;entryY=0.75;entryDx=0;entryDy=0;" parent="1" target="W37AYwWuPMsIZeuOg98Q-5" edge="1">
          <mxGeometry width="50" height="50" relative="1" as="geometry">
            <mxPoint x="590" y="280" as="sourcePoint" />
            <mxPoint x="600" y="510" as="targetPoint" />
            <Array as="points">
              <mxPoint x="590" y="570" />
            </Array>
          </mxGeometry>
        </mxCell>
        <mxCell id="W37AYwWuPMsIZeuOg98Q-38" value="" style="shape=umlActor;verticalLabelPosition=bottom;verticalAlign=top;html=1;outlineConnect=0;" parent="1" vertex="1">
          <mxGeometry x="345" y="156.5" width="30" height="57" as="geometry" />
        </mxCell>
        <mxCell id="W37AYwWuPMsIZeuOg98Q-39" value="&lt;font style=&quot;font-size: 16px;&quot;&gt;&lt;b&gt;DATABASE&lt;/b&gt;&lt;/font&gt;" style="text;html=1;align=center;verticalAlign=middle;resizable=0;points=[];autosize=1;strokeColor=none;fillColor=none;" parent="1" vertex="1">
          <mxGeometry x="305" y="-120" width="110" height="30" as="geometry" />
        </mxCell>
        <mxCell id="cVPNfcUUXNzNqqyTAjA--11" value="AWS Cognito (Auth, JWT)&lt;div&gt;Elastic Beanstalk (Hosting)&lt;/div&gt;&lt;div&gt;CodePipeline(CI/CD flow)&lt;/div&gt;&lt;div&gt;CodeBuild (Runs/Compiles Maven build)&lt;/div&gt;&lt;div&gt;AWS IAM roles&lt;/div&gt;&lt;div&gt;CloudWatch?&lt;/div&gt;" style="rounded=1;whiteSpace=wrap;html=1;strokeColor=#2d76ba;fillColor=#dae8fc;fontSize=12;fontFamily=Helvetica;" vertex="1" parent="1">
          <mxGeometry x="660" y="-80" width="160" height="160" as="geometry" />
        </mxCell>
        <mxCell id="cVPNfcUUXNzNqqyTAjA--12" value="&lt;b&gt;&lt;font style=&quot;font-size: 16px;&quot;&gt;INFRASTRUCTURE&lt;/font&gt;&lt;/b&gt;" style="text;html=1;align=center;verticalAlign=middle;resizable=0;points=[];autosize=1;strokeColor=none;fillColor=none;" vertex="1" parent="1">
          <mxGeometry x="655" y="-120" width="170" height="30" as="geometry" />
        </mxCell>
      </root>
    </mxGraphModel>
  </diagram>
</mxfile>
